<svg width="680" height="224" viewBox="0 0 680 224" xmlns="http://www.w3.org/2000/svg" role="img"><title>Roadmap M0–M13</title><desc>Doc 18: fourteen milestones on one axis; M2 is the center of gravity — time-to-M2 is the only currently meaningful metric.</desc><defs><marker id="arrow" viewBox="0 0 10 10" refX="8" refY="5" markerWidth="6" markerHeight="6" orient="auto-start-reverse"><path d="M2 1L8 5L2 9" fill="none" stroke="#5F5E5A" stroke-width="1.5" stroke-linecap="round" stroke-linejoin="round"/></marker><style>text{font-family:-apple-system,"Segoe UI",Roboto,"Helvetica Neue",Arial,sans-serif}.th{font-size:14px;font-weight:500}.ts{font-size:12px;font-weight:400}</style></defs><rect x="0" y="0" width="680" height="224" fill="#FFFFFF"/><text class="ts" x="146" y="56" text-anchor="middle" fill="#854F0B">center of gravity — time-to-M2</text><line x1="146" y1="64" x2="146" y2="106" stroke="#854F0B" stroke-width="0.7" stroke-dasharray="3 3"/><line x1="40" y1="120" x2="640" y2="120" stroke="#5F5E5A" stroke-width="1.2" marker-end="url(#arrow)"/><circle cx="60" cy="120" r="3" fill="#888780"/><text class="ts" x="60" y="102" text-anchor="middle" fill="#5F5E5A">M0</text><circle cx="103" cy="120" r="3" fill="#888780"/><text class="ts" x="103" y="102" text-anchor="middle" fill="#5F5E5A">M1</text><circle cx="146" cy="120" r="9" fill="#FAEEDA" stroke="#854F0B" stroke-width="1"/><text class="th" x="146" y="102" text-anchor="middle" fill="#854F0B">M2</text><circle cx="189" cy="120" r="3" fill="#888780"/><text class="ts" x="189" y="102" text-anchor="middle" fill="#5F5E5A">M3</text><circle cx="232" cy="120" r="3" fill="#888780"/><text class="ts" x="232" y="102" text-anchor="middle" fill="#5F5E5A">M4</text><circle cx="275" cy="120" r="3" fill="#888780"/><text class="ts" x="275" y="102" text-anchor="middle" fill="#5F5E5A">M5</text><circle cx="318" cy="120" r="3" fill="#888780"/><text class="ts" x="318" y="102" text-anchor="middle" fill="#5F5E5A">M6</text><circle cx="361" cy="120" r="3" fill="#888780"/><text class="ts" x="361" y="102" text-anchor="middle" fill="#5F5E5A">M7</text><circle cx="404" cy="120" r="3" fill="#888780"/><text class="ts" x="404" y="102" text-anchor="middle" fill="#5F5E5A">M8</text><circle cx="447" cy="120" r="3" fill="#888780"/><text class="ts" x="447" y="102" text-anchor="middle" fill="#5F5E5A">M9</text><circle cx="490" cy="120" r="3" fill="#888780"/><text class="ts" x="490" y="102" text-anchor="middle" fill="#5F5E5A">M10</text><circle cx="533" cy="120" r="3" fill="#888780"/><text class="ts" x="533" y="102" text-anchor="middle" fill="#5F5E5A">M11</text><circle cx="576" cy="120" r="3" fill="#888780"/><text class="ts" x="576" y="102" text-anchor="middle" fill="#5F5E5A">M12</text><circle cx="619" cy="120" r="3" fill="#888780"/><text class="ts" x="619" y="102" text-anchor="middle" fill="#5F5E5A">M13</text><rect x="45" y="138" width="116" height="32" rx="8" fill="#E1F5EE" stroke="#0F6E56" stroke-width="0.5"/><text class="th" x="103.0" y="154" text-anchor="middle" dominant-baseline="central" fill="#085041">Foundation</text><rect x="174" y="138" width="116" height="32" rx="8" fill="#F1EFE8" stroke="#5F5E5A" stroke-width="0.5"/><text class="th" x="232.0" y="154" text-anchor="middle" dominant-baseline="central" fill="#444441">Sources</text><rect x="303" y="138" width="73" height="32" rx="8" fill="#EEEDFE" stroke="#534AB7" stroke-width="0.5"/><text class="th" x="339.5" y="154" text-anchor="middle" dominant-baseline="central" fill="#3C3489">Truth</text><rect x="389" y="138" width="245" height="32" rx="8" fill="#F1EFE8" stroke="#5F5E5A" stroke-width="0.5"/><text class="th" x="511.5" y="154" text-anchor="middle" dominant-baseline="central" fill="#444441">Scale: retrieval → canvas</text><text class="ts" x="340" y="196" text-anchor="middle" fill="#5F5E5A">M2 = first daily-usable loop; every earlier scope decision is judged against this clock</text></svg>
